HIERARCHY
ROOT Hips
{
  OFFSET 263.056 91.6644 -274.608
  CHANNELS 6 Xposition Yposition Zposition Zrotation Xrotation Yrotation
  JOINT LeftUpLeg
  {
    OFFSET 8.64259 1.95398 -2.38835
    CHANNELS 3 Zrotation Xrotation Yrotation
    JOINT LeftLeg
    {
      OFFSET 43.7702 0 0
      CHANNELS 3 Zrotation Xrotation Yrotation
      JOINT LeftFoot
      {
        OFFSET 40.6238 0 0
        CHANNELS 3 Zrotation Xrotation Yrotation
        JOINT LeftToeBase
        {
          OFFSET 12.7242 0 0
          CHANNELS 3 Zrotation Xrotation Yrotation
          End Site
          {
            OFFSET 0 0 0
          }
        }
      }
    }
  }
  JOINT RightUpLeg
  {
    OFFSET -8.2249 1.95398 -2.59336
    CHANNELS 3 Zrotation Xrotation Yrotation
    JOINT RightLeg
    {
      OFFSET 43.5653 0 0
      CHANNELS 3 Zrotation Xrotation Yrotation
      JOINT RightFoot
      {
        OFFSET 40.6238 0 0
        CHANNELS 3 Zrotation Xrotation Yrotation
        JOINT RightToeBase
        {
          OFFSET 12.7242 0 0
          CHANNELS 3 Zrotation Xrotation Yrotation
          End Site
          {
            OFFSET 0 0 0
          }
        }
      }
    }
  }
  JOINT Spine
  {
    OFFSET 0.165834 0.87714 6.61349
    CHANNELS 3 Zrotation Xrotation Yrotation
    JOINT Spine1
    {
      OFFSET 7.38963 1.71661e-005 0
      CHANNELS 3 Zrotation Xrotation Yrotation
      JOINT Spine2
      {
        OFFSET 11.9445 1.14441e-005 0
        CHANNELS 3 Zrotation Xrotation Yrotation
        JOINT Spine3
        {
          OFFSET 14.7254 4.19617e-005 0
          CHANNELS 3 Zrotation Xrotation Yrotation
          JOINT Spine4
          {
            OFFSET 10.9679 0 0
            CHANNELS 3 Zrotation Xrotation Yrotation
            JOINT RightShoulder
            {
              OFFSET 2.46616 -1.6653 3.69651
              CHANNELS 3 Zrotation Xrotation Yrotation
              JOINT RightArm
              {
                OFFSET 13.0012 0 0
                CHANNELS 3 Zrotation Xrotation Yrotation
                JOINT RightForeArm
                {
                  OFFSET 28.7848 1.52588e-005 0
                  CHANNELS 3 Zrotation Xrotation Yrotation
                  JOINT RightHand
                  {
                    OFFSET 26.5688 1.52588e-005 0
                    CHANNELS 3 Zrotation Xrotation Yrotation
                    End Site
                    {
                      OFFSET 0 0 0
                    }
                  }
                }
              }
            }
            JOINT LeftShoulder
            {
              OFFSET 2.38034 -1.29275 -3.7523
              CHANNELS 3 Zrotation Xrotation Yrotation
              JOINT LeftArm
              {
                OFFSET 16.3182 6.10352e-005 0
                CHANNELS 3 Zrotation Xrotation Yrotation
                JOINT LeftForeArm
                {
                  OFFSET 27.0901 0 0
                  CHANNELS 3 Zrotation Xrotation Yrotation
                  JOINT LeftHand
                  {
                    OFFSET 24.5451 1.52588e-005 0
                    CHANNELS 3 Zrotation Xrotation Yrotation
                    End Site
                    {
                      OFFSET 0 0 0
                    }
                  }
                }
              }
            }
            JOINT Neck
            {
              OFFSET 5.0226 -0.0266342 0
              CHANNELS 3 Zrotation Xrotation Yrotation
              JOINT Head
              {
                OFFSET 6.69364 2.86102e-005 0
                CHANNELS 3 Zrotation Xrotation Yrotation
                End Site
                {
                  OFFSET 0 0 0
                }
              }
            }
          }
        }
      }
    }
  }
}
MOTION
Frames:	12
Frame Time:	0.0416667
52.4749 86.4747 -312.192 4.64128 -15.1037 17.8387 174.198 56.26 101.093 -26.5484 23.8018 3.13129 31.2766 -26.5639 -12.9437 105.838 30.5974 -62.1914 13.1872 70.4139 -118.85 -134.77 73.7465 68.8846 21.35 1.30506 15.6339 42.084 11.792 116.16 -0.582942 0.960917 -87.9799 24.9333 0.0516178 4.18135 13.2556 0.235423 4.17504 -9.22877 -1.20641 4.00415 10.7839 -1.20641 4.00416 -173.804 -78.8474 8.81238 3.1191 5.35722 45.0562 -169.574 10.4882 -127.458 -42.609 -15.284 44.3047 -96.2391 -13.4325 51.0936 -31.8047 30.1246 8.07326 10.3306 -13.0776 -109.516 33.1948 2.57167 3.91685 24.2913 -26.2902 -54.19 -9.36342 -7.93422 38.4308 
49.318 90.2656 -312.083 11.2077 -36.2655 8.83596 -177.843 23.9483 86.3885 -3.99753 25.5356 1.154 17.1286 -24.7017 -18.2384 106.902 36.5041 -54.7418 127.897 87.6813 126.353 -74.1474 29.9967 16.6875 48.3533 3.36057 7.68483 72.7417 25.2 54.2165 -0.420985 3.20135 -88.4582 20.4465 0.0313179 3.2227 8.77159 0.17304 3.21819 -13.7332 -0.938199 3.0834 6.27943 -0.938194 3.08339 127.68 -73.0393 -51.6623 9.13217 -4.58023 43.8055 -171.426 2.81718 -128.332 -49.0782 -17.5485 41.7825 -99.3851 -26.7762 54.1208 -30.876 29.6931 9.91819 14.7134 -16.829 -115.603 31.4899 2.917 5.4811 28.1895 -15.4136 -30.5919 -12.5238 -4.94258 25.252 
47.0075 91.0678 -311.435 10.4981 -60.2693 0.885902 -179.261 -0.0840325 89.9969 -7.0968 28.0189 0.473207 22.0397 -20.885 -13.2855 100.884 43.4539 -40.0466 178.149 64.8668 84.4145 -63.6926 0.225262 1.04156 71.0451 -1.06917 -0.884632 58.3062 0.341882 3.396 -0.675588 5.58412 -88.7431 15.7056 -0.706448 2.60921 4.03215 -0.590967 2.63774 -18.4873 -1.45778 2.27656 1.5253 -1.45778 2.27655 97.0869 -61.4713 -88.9337 19.1987 -6.43814 45.9987 -173.224 -4.01978 -130.424 -58.7299 -20.3281 37.5814 -99.8655 -34.8952 57.7456 -34.3777 25.9197 12.3492 16.9165 -15.662 -113.027 32.5014 3.07501 5.68479 19.1809 -2.99347 -10.2715 -3.71887 0.148485 9.84748 
47.4761 90.3996 -309.243 8.93624 -78.0542 5.49746 -175.754 -9.4383 88.8139 -23.9998 24.2391 0.909806 33.8315 -14.6503 -6.25357 93.9446 42.3456 -35.0389 173.611 44.8388 93.3697 -61.516 0.22134 1.76808 63.1097 -0.71204 -0.277882 57.4549 2.12522 1.56263 -0.980482 7.58154 -89.729 11.7294 -1.82212 0.719461 0.0596433 -1.78867 0.798978 -22.4868 -1.95411 0.138372 -2.47412 -1.95411 0.138381 84.7773 -54.2413 -107.441 23.7317 -3.4653 44.0041 -167.494 -11.1967 -124.559 -70.2593 -17.0044 22.5682 -98.5394 -38.1379 61.4752 -36.7535 20.231 13.0883 14.0157 -10.1197 -105.194 33.0944 2.99793 5.27147 13.0655 2.19575 -0.313006 2.76611 2.37969 3.35151 
48.2852 89.7312 -303.62 43.2204 -82.8693 42.3939 -176.573 0.151012 92.5841 -50.4546 16.4673 2.92876 44.3513 -9.13784 1.15683 90.4266 40.1637 -34.8657 171.457 31.736 94.997 -59.9992 5.92807 4.17441 70.3649 -3.92701 -2.02256 48.9091 2.86894 14.0996 -1.40678 8.3495 -90.1161 10.1773 -2.85604 0.0112823 -1.49048 -2.85278 0.137067 -24.0493 -2.72729 -0.848243 -4.03661 -2.7273 -0.848252 79.219 -54.0349 -115.448 22.24 -1.88951 38.8475 -160.846 -14.3246 -119.188 -73 -11.964 12.9476 -97.9863 -39.7521 63.0711 -37.8419 15.8233 14.0551 10.5115 -5.76916 -93.6752 32.1465 2.54757 4.10692 9.58323 2.89592 1.74609 6.775 2.62909 2.2193 
48.5453 88.4262 -296.757 29.6235 -81.8618 30.1632 -176.646 15.1225 92.4206 -67.0805 10.7052 2.33742 49.1416 -4.99608 7.88005 82.522 37.488 -30.4555 173.88 27.988 97.559 -59.6498 9.54186 3.00317 76.2855 -6.1307 -2.86122 51.6133 3.06249 11.7603 -0.954099 8.1869 -90.3397 10.4961 -2.05633 -0.491664 -1.17326 -2.07598 -0.400657 -23.7183 -1.81348 -1.08712 -3.70559 -1.81348 -1.08712 80.5366 -54.0771 -113.563 22.5047 -3.10298 30.4766 -156.94 -15.4471 -116.003 -66.3871 -9.02319 10.3591 -99.2711 -41.2937 61.6632 -38.1273 13.027 15.2496 10.611 -3.75894 -82.2005 35.6872 3.45437 5.92578 9.95265 1.63899 3.23056 7.13374 0.920563 0.53501 
48.9724 87.8155 -289.484 -10.7047 -77.9319 -8.37567 -173.518 31.917 94.3199 -76.6178 5.69649 0.909323 51.8779 -3.46986 7.54442 61.0835 29.3904 -13.5428 178.626 26.0353 100.461 -55.3774 9.98255 -0.302326 77.904 -7.92671 -3.54941 57.4945 4.04215 11.794 0.0239268 7.81695 -90.4374 11.2334 -0.156051 -0.859373 -0.438067 -0.193711 -0.851668 -22.9689 0.109398 -0.866563 -2.95628 0.109407 -0.866551 79.657 -52.5961 -115.378 22.6056 -2.18278 22.0113 -153.28 -13.9757 -112.536 -56.2062 -6.62959 8.87285 -100.203 -43.1229 60.9848 -37.5922 10.0129 17.6427 8.62136 0.713355 -73.4797 40.3996 3.19076 3.97337 13.5729 0.358461 4.26164 4.47956 -0.766475 -0.237579 
47.8955 87.7273 -281.826 -23.9767 -77.0137 -26.123 -169.418 41.4805 90.0549 -78.0804 7.45357 -0.750174 53.0835 -2.97962 7.53036 44.6575 19.4596 8.99103 -179.823 18.6677 96.6905 -51.142 9.01068 -2.96271 80.0942 -9.17669 -3.9357 59.6577 4.24164 10.9837 0.496168 7.86312 -89.798 11.1551 1.08161 0.30147 -0.51529 1.09383 0.253566 -23.0543 0.940987 0.612636 -3.04167 0.940994 0.612638 81.6621 -48.516 -113.991 27.4769 -3.58345 14.0854 -146.198 -13.3177 -106.269 -49.6614 -3.31094 2.36648 -99.7718 -43.4298 61.7789 -38.9806 8.22027 24.9982 2.99693 -2.41281 -75.2911 38.7904 3.01548 3.88025 15.5235 -0.513374 5.36322 2.89391 -2.04133 -1.57443 
47.3206 88.8815 -273.244 -31.7541 -77.3515 -36.4698 -167.414 46.3427 87.7543 -71.8012 12.3479 -2.44763 54.0832 -2.64004 8.08602 44.7961 20.7162 13.422 -179.955 9.01253 93.0791 -43.9428 4.30184 -4.55631 72.398 -6.37554 -3.17713 66.9764 6.06768 13.0584 0.964316 7.86658 -89.3903 11.1313 2.20262 0.999378 -0.538055 2.24446 0.901411 -23.081 1.80044 1.61522 -3.0683 1.80045 1.61525 83.8721 -45.5751 -111.687 31.3253 -6.13651 8.5788 -128.473 -6.0586 -95.8139 -43.0536 1.87271 -13.0114 -97.2708 -42.1388 65.1771 -42.0963 8.8667 32.7733 5.41579 -2.45637 -80.4519 37.7602 3.17932 4.5656 13.9765 -2.4564 5.1414 3.36712 -3.84417 -2.24946 
47.4394 90.9268 -263.391 -39.3453 -76.1396 -43.6581 -167.445 48.151 89.349 -58.97 15.8321 -4.26486 54.0829 -3.76926 6.9185 47.5146 23.5476 10.702 -179.778 0.243268 90.3539 -34.1069 -3.43344 -5.46451 62.0713 -3.14858 -1.71959 58.0849 6.57675 23.5996 1.42773 7.80507 -89.3806 11.255 3.12968 0.92195 -0.412387 3.16722 0.783183 -22.9692 2.70785 1.82046 -2.95653 2.70785 1.82045 85.8751 -42.4609 -109.591 33.0056 -12.3259 3.49579 -99.5336 0.525965 -88.3565 -39.6362 6.78254 -28.5107 -95.2957 -41.4757 68.0878 -45.3185 9.49213 37.8698 4.51418 -3.1507 -82.3736 36.8044 2.72807 3.56342 14.6587 -3.70672 6.65599 2.6437 -5.53414 -3.50553 
48.0508 92.8268 -252.941 -31.8372 -76.4206 -38.198 -169.609 47.1685 87.2422 -41.0114 17.623 -5.16107 51.1037 -6.77347 4.46407 44.0319 18.3386 7.47235 177.267 -6.38201 85.7087 -25.7337 -15.758 -5.48265 43.2248 4.58743 4.21932 45.035 2.3703 14.4808 1.48952 7.63692 -89.1114 11.5794 3.37918 1.42273 -0.0877334 3.43852 1.27248 -22.6426 2.79539 2.37296 -2.6299 2.79539 2.37295 86.5591 -41.4777 -108.805 33.5872 -17.8483 1.72091 -67.3372 12.8193 -93.7007 -31.3623 6.97561 -33.0798 -95.8822 -39.995 66.5913 -47.9404 6.97711 41.6491 1.87387 -3.8474 -82.4675 38.4 1.91969 1.02498 14.9186 -5.1076 6.20453 1.41865 -6.77936 -4.24547 
48.5532 94.3188 -242.459 -26.3809 -77.5912 -32.0085 -172.421 42.7503 87.8409 -21.3633 20.4356 -4.6732 45.5338 -11.1215 1.12402 41.2872 14.9945 7.88427 176.579 -10.5917 85.065 -23.209 -16.3511 -5.77634 32.4767 7.93715 8.78486 30.939 0.0240693 1.57596 1.59321 7.55913 -89.1958 11.7389 3.54631 1.22945 0.0723623 3.59698 1.07199 -22.488 3.01281 2.23906 -2.47535 3.01282 2.23906 87.205 -40.959 -107.898 33.7361 -21.6427 1.87088 -41.6437 16.1531 -101.065 -26.3646 3.66909 -21.2979 -96.1661 -38.7415 65.6404 -50.0004 5.33502 43.2287 1.67648 -3.95155 -82.9949 38.2248 1.87671 0.946187 14.9914 -6.28554 6.1438 0.718145 -7.90154 -4.85934 
